<?xml version="1.0" encoding="utf-8"?>
<svg xmlns="http://www.w3.org/2000/svg"
    xmlns:xlink="http://www.w3.org/1999/xlink"
    width="520" height="520" viewBox="-10 -10 520 520">
<defs>
<style type="text/css"><![CDATA[
line {
    stroke: #000000;
    stroke-linecap: square;
    stroke-width: 5;
}
]]></style>
</defs>
<line x1="45.45454545454545" y1="0.0" x2="45.45454545454545" y2="45.45454545454545"/>
<line x1="45.45454545454545" y1="45.45454545454545" x2="45.45454545454545" y2="90.9090909090909"/>
<line x1="0.0" y1="136.36363636363637" x2="45.45454545454545" y2="136.36363636363637"/>
<line x1="45.45454545454545" y1="181.8181818181818" x2="45.45454545454545" y2="227.27272727272725"/>
<line x1="45.45454545454545" y1="227.27272727272725" x2="45.45454545454545" y2="272.72727272727275"/>
<line x1="45.45454545454545" y1="272.72727272727275" x2="45.45454545454545" y2="318.1818181818182"/>
<line x1="45.45454545454545" y1="363.6363636363636" x2="45.45454545454545" y2="409.09090909090907"/>
<line x1="0.0" y1="454.5454545454545" x2="45.45454545454545" y2="454.5454545454545"/>
<line x1="0.0" y1="500.0" x2="45.45454545454545" y2="500.0"/>
<line x1="90.9090909090909" y1="45.45454545454545" x2="90.9090909090909" y2="90.9090909090909"/>
<line x1="45.45454545454545" y1="136.36363636363637" x2="90.9090909090909" y2="136.36363636363637"/>
<line x1="90.9090909090909" y1="90.9090909090909" x2="90.9090909090909" y2="136.36363636363637"/>
<line x1="45.45454545454545" y1="181.8181818181818" x2="90.9090909090909" y2="181.8181818181818"/>
<line x1="90.9090909090909" y1="227.27272727272725" x2="90.9090909090909" y2="272.72727272727275"/>
<line x1="45.45454545454545" y1="318.1818181818182" x2="90.9090909090909" y2="318.1818181818182"/>
<line x1="45.45454545454545" y1="363.6363636363636" x2="90.9090909090909" y2="363.6363636363636"/>
<line x1="45.45454545454545" y1="454.5454545454545" x2="90.9090909090909" y2="454.5454545454545"/>
<line x1="90.9090909090909" y1="409.09090909090907" x2="90.9090909090909" y2="454.5454545454545"/>
<line x1="45.45454545454545" y1="500.0" x2="90.9090909090909" y2="500.0"/>
<line x1="90.9090909090909" y1="45.45454545454545" x2="136.36363636363637" y2="45.45454545454545"/>
<line x1="136.36363636363637" y1="90.9090909090909" x2="136.36363636363637" y2="136.36363636363637"/>
<line x1="90.9090909090909" y1="181.8181818181818" x2="136.36363636363637" y2="181.8181818181818"/>
<line x1="136.36363636363637" y1="136.36363636363637" x2="136.36363636363637" y2="181.8181818181818"/>
<line x1="90.9090909090909" y1="227.27272727272725" x2="136.36363636363637" y2="227.27272727272725"/>
<line x1="90.9090909090909" y1="272.72727272727275" x2="136.36363636363637" y2="272.72727272727275"/>
<line x1="90.9090909090909" y1="318.1818181818182" x2="136.36363636363637" y2="318.1818181818182"/>
<line x1="90.9090909090909" y1="363.6363636363636" x2="136.36363636363637" y2="363.6363636363636"/>
<line x1="90.9090909090909" y1="409.09090909090907" x2="136.36363636363637" y2="409.09090909090907"/>
<line x1="136.36363636363637" y1="409.09090909090907" x2="136.36363636363637" y2="454.5454545454545"/>
<line x1="90.9090909090909" y1="500.0" x2="136.36363636363637" y2="500.0"/>
<line x1="136.36363636363637" y1="45.45454545454545" x2="181.8181818181818" y2="45.45454545454545"/>
<line x1="136.36363636363637" y1="90.9090909090909" x2="181.8181818181818" y2="90.9090909090909"/>
<line x1="181.8181818181818" y1="45.45454545454545" x2="181.8181818181818" y2="90.9090909090909"/>
<line x1="181.8181818181818" y1="136.36363636363637" x2="181.8181818181818" y2="181.8181818181818"/>
<line x1="136.36363636363637" y1="227.27272727272725" x2="181.8181818181818" y2="227.27272727272725"/>
<line x1="181.8181818181818" y1="181.8181818181818" x2="181.8181818181818" y2="227.27272727272725"/>
<line x1="136.36363636363637" y1="272.72727272727275" x2="181.8181818181818" y2="272.72727272727275"/>
<line x1="181.8181818181818" y1="272.72727272727275" x2="181.8181818181818" y2="318.1818181818182"/>
<line x1="136.36363636363637" y1="363.6363636363636" x2="181.8181818181818" y2="363.6363636363636"/>
<line x1="181.8181818181818" y1="318.1818181818182" x2="181.8181818181818" y2="363.6363636363636"/>
<line x1="136.36363636363637" y1="409.09090909090907" x2="181.8181818181818" y2="409.09090909090907"/>
<line x1="136.36363636363637" y1="500.0" x2="181.8181818181818" y2="500.0"/>
<line x1="181.8181818181818" y1="454.5454545454545" x2="181.8181818181818" y2="500.0"/>
<line x1="227.27272727272725" y1="0.0" x2="227.27272727272725" y2="45.45454545454545"/>
<line x1="181.8181818181818" y1="90.9090909090909" x2="227.27272727272725" y2="90.9090909090909"/>
<line x1="181.8181818181818" y1="136.36363636363637" x2="227.27272727272725" y2="136.36363636363637"/>
<line x1="227.27272727272725" y1="136.36363636363637" x2="227.27272727272725" y2="181.8181818181818"/>
<line x1="181.8181818181818" y1="272.72727272727275" x2="227.27272727272725" y2="272.72727272727275"/>
<line x1="227.27272727272725" y1="318.1818181818182" x2="227.27272727272725" y2="363.6363636363636"/>
<line x1="181.8181818181818" y1="409.09090909090907" x2="227.27272727272725" y2="409.09090909090907"/>
<line x1="227.27272727272725" y1="363.6363636363636" x2="227.27272727272725" y2="409.09090909090907"/>
<line x1="227.27272727272725" y1="409.09090909090907" x2="227.27272727272725" y2="454.5454545454545"/>
<line x1="181.8181818181818" y1="500.0" x2="227.27272727272725" y2="500.0"/>
<line x1="227.27272727272725" y1="45.45454545454545" x2="272.72727272727275" y2="45.45454545454545"/>
<line x1="227.27272727272725" y1="90.9090909090909" x2="272.72727272727275" y2="90.9090909090909"/>
<line x1="227.27272727272725" y1="136.36363636363637" x2="272.72727272727275" y2="136.36363636363637"/>
<line x1="227.27272727272725" y1="227.27272727272725" x2="272.72727272727275" y2="227.27272727272725"/>
<line x1="272.72727272727275" y1="181.8181818181818" x2="272.72727272727275" y2="227.27272727272725"/>
<line x1="227.27272727272725" y1="272.72727272727275" x2="272.72727272727275" y2="272.72727272727275"/>
<line x1="272.72727272727275" y1="227.27272727272725" x2="272.72727272727275" y2="272.72727272727275"/>
<line x1="272.72727272727275" y1="272.72727272727275" x2="272.72727272727275" y2="318.1818181818182"/>
<line x1="272.72727272727275" y1="318.1818181818182" x2="272.72727272727275" y2="363.6363636363636"/>
<line x1="272.72727272727275" y1="363.6363636363636" x2="272.72727272727275" y2="409.09090909090907"/>
<line x1="227.27272727272725" y1="454.5454545454545" x2="272.72727272727275" y2="454.5454545454545"/>
<line x1="227.27272727272725" y1="500.0" x2="272.72727272727275" y2="500.0"/>
<line x1="272.72727272727275" y1="90.9090909090909" x2="318.1818181818182" y2="90.9090909090909"/>
<line x1="318.1818181818182" y1="45.45454545454545" x2="318.1818181818182" y2="90.9090909090909"/>
<line x1="272.72727272727275" y1="136.36363636363637" x2="318.1818181818182" y2="136.36363636363637"/>
<line x1="318.1818181818182" y1="136.36363636363637" x2="318.1818181818182" y2="181.8181818181818"/>
<line x1="318.1818181818182" y1="181.8181818181818" x2="318.1818181818182" y2="227.27272727272725"/>
<line x1="318.1818181818182" y1="227.27272727272725" x2="318.1818181818182" y2="272.72727272727275"/>
<line x1="272.72727272727275" y1="318.1818181818182" x2="318.1818181818182" y2="318.1818181818182"/>
<line x1="272.72727272727275" y1="409.09090909090907" x2="318.1818181818182" y2="409.09090909090907"/>
<line x1="272.72727272727275" y1="454.5454545454545" x2="318.1818181818182" y2="454.5454545454545"/>
<line x1="272.72727272727275" y1="500.0" x2="318.1818181818182" y2="500.0"/>
<line x1="363.6363636363636" y1="0.0" x2="363.6363636363636" y2="45.45454545454545"/>
<line x1="318.1818181818182" y1="90.9090909090909" x2="363.6363636363636" y2="90.9090909090909"/>
<line x1="318.1818181818182" y1="136.36363636363637" x2="363.6363636363636" y2="136.36363636363637"/>
<line x1="318.1818181818182" y1="227.27272727272725" x2="363.6363636363636" y2="227.27272727272725"/>
<line x1="318.1818181818182" y1="318.1818181818182" x2="363.6363636363636" y2="318.1818181818182"/>
<line x1="363.6363636363636" y1="272.72727272727275" x2="363.6363636363636" y2="318.1818181818182"/>
<line x1="318.1818181818182" y1="363.6363636363636" x2="363.6363636363636" y2="363.6363636363636"/>
<line x1="318.1818181818182" y1="409.09090909090907" x2="363.6363636363636" y2="409.09090909090907"/>
<line x1="318.1818181818182" y1="454.5454545454545" x2="363.6363636363636" y2="454.5454545454545"/>
<line x1="318.1818181818182" y1="500.0" x2="363.6363636363636" y2="500.0"/>
<line x1="363.6363636363636" y1="90.9090909090909" x2="409.09090909090907" y2="90.9090909090909"/>
<line x1="409.09090909090907" y1="45.45454545454545" x2="409.09090909090907" y2="90.9090909090909"/>
<line x1="409.09090909090907" y1="90.9090909090909" x2="409.09090909090907" y2="136.36363636363637"/>
<line x1="363.6363636363636" y1="181.8181818181818" x2="409.09090909090907" y2="181.8181818181818"/>
<line x1="363.6363636363636" y1="227.27272727272725" x2="409.09090909090907" y2="227.27272727272725"/>
<line x1="363.6363636363636" y1="272.72727272727275" x2="409.09090909090907" y2="272.72727272727275"/>
<line x1="363.6363636363636" y1="363.6363636363636" x2="409.09090909090907" y2="363.6363636363636"/>
<line x1="409.09090909090907" y1="318.1818181818182" x2="409.09090909090907" y2="363.6363636363636"/>
<line x1="363.6363636363636" y1="409.09090909090907" x2="409.09090909090907" y2="409.09090909090907"/>
<line x1="409.09090909090907" y1="409.09090909090907" x2="409.09090909090907" y2="454.5454545454545"/>
<line x1="363.6363636363636" y1="500.0" x2="409.09090909090907" y2="500.0"/>
<line x1="454.5454545454545" y1="0.0" x2="454.5454545454545" y2="45.45454545454545"/>
<line x1="454.5454545454545" y1="45.45454545454545" x2="454.5454545454545" y2="90.9090909090909"/>
<line x1="409.09090909090907" y1="136.36363636363637" x2="454.5454545454545" y2="136.36363636363637"/>
<line x1="409.09090909090907" y1="181.8181818181818" x2="454.5454545454545" y2="181.8181818181818"/>
<line x1="454.5454545454545" y1="136.36363636363637" x2="454.5454545454545" y2="181.8181818181818"/>
<line x1="409.09090909090907" y1="227.27272727272725" x2="454.5454545454545" y2="227.27272727272725"/>
<line x1="409.09090909090907" y1="272.72727272727275" x2="454.5454545454545" y2="272.72727272727275"/>
<line x1="409.09090909090907" y1="318.1818181818182" x2="454.5454545454545" y2="318.1818181818182"/>
<line x1="454.5454545454545" y1="363.6363636363636" x2="454.5454545454545" y2="409.09090909090907"/>
<line x1="409.09090909090907" y1="454.5454545454545" x2="454.5454545454545" y2="454.5454545454545"/>
<line x1="454.5454545454545" y1="409.09090909090907" x2="454.5454545454545" y2="454.5454545454545"/>
<line x1="409.09090909090907" y1="500.0" x2="454.5454545454545" y2="500.0"/>
<line x1="500.0" y1="0.0" x2="500.0" y2="45.45454545454545"/>
<line x1="500.0" y1="45.45454545454545" x2="500.0" y2="90.9090909090909"/>
<line x1="500.0" y1="90.9090909090909" x2="500.0" y2="136.36363636363637"/>
<line x1="500.0" y1="136.36363636363637" x2="500.0" y2="181.8181818181818"/>
<line x1="454.5454545454545" y1="227.27272727272725" x2="500.0" y2="227.27272727272725"/>
<line x1="500.0" y1="181.8181818181818" x2="500.0" y2="227.27272727272725"/>
<line x1="500.0" y1="227.27272727272725" x2="500.0" y2="272.72727272727275"/>
<line x1="454.5454545454545" y1="318.1818181818182" x2="500.0" y2="318.1818181818182"/>
<line x1="500.0" y1="272.72727272727275" x2="500.0" y2="318.1818181818182"/>
<line x1="500.0" y1="318.1818181818182" x2="500.0" y2="363.6363636363636"/>
<line x1="500.0" y1="363.6363636363636" x2="500.0" y2="409.09090909090907"/>
<line x1="500.0" y1="409.09090909090907" x2="500.0" y2="454.5454545454545"/>
<line x1="454.5454545454545" y1="500.0" x2="500.0" y2="500.0"/>
<line x1="500.0" y1="454.5454545454545" x2="500.0" y2="500.0"/>
<line x1="0" y1="0" x2="500" y2="0"/>
<line x1="0" y1="0" x2="0" y2="500"/>
</svg>
